<?xml version="1.0" encoding="UTF-8"?>
<svg xmlns="http://www.w3.org/2000/svg" width="64" height="64" viewBox="0 0 64 64" role="img" aria-label="Play gear favicon">
  <defs>
    <linearGradient id="g1" x1="0" x2="1" y1="0" y2="1">
      <stop offset="0%" stop-color="#8b5cf6"/>
      <stop offset="100%" stop-color="#ec4899"/>
    </linearGradient>
  </defs>

  <!-- background circle subtle -->
  <rect width="64" height="64" rx="10" fill="#0f1113" />
  <rect x="2" y="2" width="60" height="60" rx="8" fill="url(#g1)" opacity="0.06" />

  <!-- pixelated play arrow built from blocks -->
  <!-- Blocks coordinates arranged to form a right-pointing triangle -->
  <g fill="url(#g1)">
    <rect x="18" y="14" width="4" height="4" rx="0.6" />
    <rect x="22" y="14" width="4" height="4" rx="0.6" />
    <rect x="26" y="14" width="4" height="4" rx="0.6" />

    <rect x="18" y="18" width="4" height="4" rx="0.6" />
    <rect x="22" y="18" width="4" height="4" rx="0.6" />
    <rect x="26" y="18" width="4" height="4" rx="0.6" />
    <rect x="30" y="18" width="4" height="4" rx="0.6" />

    <rect x="18" y="22" width="4" height="4" rx="0.6" />
    <rect x="22" y="22" width="4" height="4" rx="0.6" />
    <rect x="26" y="22" width="4" height="4" rx="0.6" />
    <rect x="30" y="22" width="4" height="4" rx="0.6" />
    <rect x="34" y="22" width="4" height="4" rx="0.6" />

    <rect x="18" y="26" width="4" height="4" rx="0.6" />
    <rect x="22" y="26" width="4" height="4" rx="0.6" />
    <rect x="26" y="26" width="4" height="4" rx="0.6" />
    <rect x="30" y="26" width="4" height="4" rx="0.6" />
    <rect x="34" y="26" width="4" height="4" rx="0.6" />
    <rect x="38" y="26" width="4" height="4" rx="0.6" />

    <rect x="22" y="30" width="4" height="4" rx="0.6" />
    <rect x="26" y="30" width="4" height="4" rx="0.6" />
    <rect x="30" y="30" width="4" height="4" rx="0.6" />
    <rect x="34" y="30" width="4" height="4" rx="0.6" />
  </g>

  <!-- Small gear at base of arrow (bottom-left of the triangle) -->
  <g transform="translate(10,34) scale(0.9)" fill="#a78bfa">
    <!-- gear center -->
    <circle cx="10" cy="10" r="4" fill="#a78bfa" />
    <circle cx="10" cy="10" r="2.2" fill="#0f0f10" />
    <!-- teeth (8) -->
    <g fill="#8b5cf6">
      <rect x="9" y="0.5" width="2" height="3.5" rx="0.5" transform="rotate(0 10 10)" />
      <rect x="16.5" y="9" width="3.5" height="2" rx="0.5" transform="rotate(45 10 10)" />
      <rect x="14.5" y="16.5" width="2" height="3.5" rx="0.5" transform="rotate(90 10 10)" />
      <rect x="6" y="16.5" width="3.5" height="2" rx="0.5" transform="rotate(135 10 10)" />
      <rect x="0.5" y="9" width="2" height="3.5" rx="0.5" transform="rotate(180 10 10)" />
      <rect x="6" y="2" width="3.5" height="2" rx="0.5" transform="rotate(-135 10 10)" />
      <rect x="14.5" y="2" width="2" height="3.5" rx="0.5" transform="rotate(-90 10 10)" />
      <rect x="16.5" y="6" width="3.5" height="2" rx="0.5" transform="rotate(-45 10 10)" />
    </g>
  </g>

</svg>
